<svg width="54" height="51" viewBox="0 0 54 51" fill="none" xmlns="http://www.w3.org/2000/svg">
<g id="Group">
<g id="Group_2">
<path id="Vector" d="M47.6097 48.4639C47.3264 48.3193 47.0019 48.2411 46.6853 48.1746C44.2716 47.6567 41.8129 47.5199 39.3601 47.3166C38.7034 47.2639 38.0428 47.2189 37.4057 47.172C48.2625 41.9771 53.8952 33.4695 53.9479 21.3716C53.432 12.5025 49.6169 5.40594 42.538 0C42.5087 0.0859947 42.5009 0.0996752 42.5048 0.109447C42.6846 0.494469 42.8742 0.877536 43.0481 1.26647C45.2918 6.23071 45.7687 11.3396 44.3986 16.6322C42.7862 22.8707 39.3738 27.9366 34.3529 31.9001C30.487 34.951 26.0798 36.839 21.1625 37.4624C18.6843 37.7751 16.2197 37.7185 13.7728 37.2338C8.62678 36.2116 4.38763 33.6396 1.00257 29.6467C0.70354 29.2949 0.414285 28.9392 0.0800781 28.5385C0.386923 30.1196 1.86642 33.3933 4.34464 36.753C7.89583 41.5706 12.5278 44.944 18.1644 47.0938C15.8679 47.3029 13.6614 47.4632 11.4685 47.7173C10.2529 47.8619 9.0548 48.1512 7.85283 48.4033C7.56553 48.4658 7.14924 48.5792 7.20591 48.9447C7.24305 49.1538 7.58703 49.404 7.83915 49.4704C8.76163 49.7186 9.6939 49.959 10.6379 50.0939C14.6875 50.6822 18.7683 50.8502 22.8491 50.9382C27.6707 51.0398 32.4962 51.0476 37.3119 50.7154C40.0637 50.5297 42.8058 50.2287 45.5498 49.9317C46.2475 49.8593 46.9335 49.6189 47.6117 49.4059C47.8189 49.3414 47.9694 49.1088 48.1453 48.9525C47.9694 48.7903 47.8189 48.5694 47.6097 48.4639ZM26.9749 45.7081C20.6348 45.8997 15.8347 43.5759 13.6067 42.3016C15.0275 42.9114 25.7554 47.299 36.8975 41.4827C47.1485 36.1354 50.0411 26.1815 50.4945 24.5241C50.2052 26.887 49.2554 31.9881 45.3837 36.7881C38.6057 45.1883 28.5267 45.6612 26.9749 45.7081Z" fill="black"/>
<path id="Vector_2" d="M40.2124 1.48927L32.721 6.44179C31.8435 15.4947 24.2134 22.5697 14.9299 22.5697C13.0595 22.5697 11.2536 22.2824 9.55914 21.7508L1.39355 27.145C5.66788 31.1242 11.3983 33.5594 17.6993 33.5594C30.9151 33.5594 41.6313 22.8433 41.6313 9.62555C41.6313 6.76818 41.1309 4.03003 40.2124 1.48927ZM10.9272 26.7971C10.6009 26.8909 10.2881 26.7971 10.0907 26.547C9.83472 26.2264 9.78586 25.9118 10.0087 25.5873C10.2627 25.218 10.5598 24.8837 10.8393 24.5339C10.98 24.36 11.1207 24.188 11.3064 23.9632C11.3768 24.6531 11.4647 25.2727 11.4999 25.8981C11.5253 26.3593 11.279 26.6994 10.9272 26.7971ZM16.9273 27.8701C16.6439 28.0597 16.3175 28.0656 16.0498 27.8897C15.7097 27.6629 15.5651 27.3795 15.6765 27.0004C15.8035 26.5743 15.9833 26.1639 16.1397 25.7456C16.2198 25.5365 16.3019 25.3274 16.4055 25.0577C16.6869 25.6929 16.9606 26.2538 17.1892 26.8362C17.3573 27.2681 17.2283 27.6708 16.9273 27.8701ZM22.9606 27.0375C22.7496 27.3033 22.4408 27.4128 22.1339 27.3268C21.7391 27.2173 21.5144 26.9906 21.5026 26.5978C21.4909 26.1522 21.5359 25.7046 21.5554 25.2609C21.5671 25.0362 21.5808 24.8153 21.5984 24.5241C22.0616 25.0401 22.4955 25.4916 22.8903 25.9743C23.1854 26.332 23.1874 26.7541 22.9606 27.0375ZM28.4408 24.3815C28.3236 24.702 28.0636 24.8974 27.7431 24.9092C27.3346 24.9267 27.0532 24.7821 26.9184 24.4108C26.7698 23.9906 26.674 23.5508 26.5568 23.1228C26.4962 22.9059 26.4415 22.6889 26.3672 22.4075C26.9692 22.7554 27.5223 23.0524 28.0461 23.3886C28.4369 23.6388 28.5679 24.0394 28.4408 24.3815ZM32.3341 20.8791C31.953 21.0218 31.6363 20.9729 31.3959 20.6602C31.1243 20.3065 30.8976 19.9215 30.6513 19.5482C30.5301 19.3625 30.409 19.171 30.2506 18.9267C30.9308 19.0732 31.5484 19.1827 32.1523 19.339C32.5979 19.4563 32.8481 19.7964 32.8324 20.1599C32.8207 20.5 32.635 20.7658 32.3341 20.8791ZM35.4553 15.6276C35.1348 15.8817 34.8201 15.9325 34.4957 15.7077C34.1302 15.4576 33.794 15.1566 33.4461 14.879C33.2702 14.7383 33.1002 14.5976 32.8735 14.4119C33.5634 14.3377 34.1869 14.2517 34.8084 14.2165C35.2696 14.1891 35.6116 14.4354 35.7094 14.7872C35.7993 15.1155 35.7054 15.4263 35.4553 15.6276ZM36.798 9.66659C36.5713 10.0086 36.2898 10.1532 35.9087 10.0399C35.4826 9.91285 35.0722 9.73304 34.654 9.57669C34.4448 9.49851 34.2357 9.41642 33.966 9.31088C34.6012 9.02945 35.166 8.75583 35.7465 8.52911C36.1745 8.36103 36.5771 8.49003 36.7784 8.79296C36.97 9.0744 36.9758 9.39883 36.798 9.66659Z" fill="black"/>
</g>
</g>
</svg>
